# xmcd
#
# Track frame offsets: 
#        150
#        18364
#        35232
#        49956
#        66201
#        78426
#        93596
#        111477
#        125398
#        141399
#
# Disc length: 2087 seconds
#
# Revision: 0
# Processed by: cddbd v1.5.1PL2 Copyright (c) Steve Scherf et al.
# Submitted via: ExactAudioCopy v0.95b4
#
DISCID=9308250a
DTITLE=ทัตพล  หอมพวงษ์ - สมหวังยังอยู่
DYEAR=1900
DGENRE=Country
TTITLE0=สมหวังยังอยู่
TTITLE1=จดหมายรักห่อก้อนอิฐ
TTITLE2=เสียงสะอื้นจาก ดี.เจ
TTITLE3=จะปิ๊กมาแต่ง
TTITLE4=รัก'นเบรค
TTITLE5=เหน่อมหาเสน่ห์
TTITLE6=พรุ่งนี้ไม่มีฉัน
TTITLE7=อึ๊บเลย
TTITLE8=หัวใจป้ายแดง
TTITLE9=หัวใจระบม
EXTD=
EXTT0=
EXTT1=
EXTT2=
EXTT3=
EXTT4=
EXTT5=
EXTT6=
EXTT7=
EXTT8=
EXTT9=
PLAYORDER=
